<!-- Created with Inkscape (http://www.inkscape.org/) -->
<svg xmlns:rdf="http://www.w3.org/1999/02/22-rdf-syntax-ns#" xmlns="http://www.w3.org/2000/svg" version="1.1" xmlns:cc="http://creativecommons.org/ns#" xmlns:dc="http://purl.org/dc/elements/1.1/" viewBox="0 0 50 50">
 <metadata>
  <rdf:RDF>
   <cc:Work rdf:about="">
    <dc:format>image/svg+xml</dc:format>
    <dc:type rdf:resource="http://purl.org/dc/dcmitype/StillImage"/>
    <dc:title/>
   </cc:Work>
  </rdf:RDF>
 </metadata>
 <path fill="#f1f1f1" d="M33.033,18.136,26.226,25l6.8068,6.8637c0.1668,0.16701,0.25022,0.36741,0.25025,0.6012-0.000034,0.20041-0.08345,0.40081-0.25025,0.6012-0.1335,0.16701-0.31702,0.25051-0.55055,0.2505-0.2336,0.000011-0.45048-0.08349-0.65065-0.2505l-6.8068-6.8637-6.8569,6.8637c-0.16685,0.16701-0.36705,0.25051-0.6006,0.2505-0.23358,0.000011-0.43378-0.08349-0.6006-0.2505-0.16685-0.20039-0.25027-0.40079-0.25025-0.6012-0.000018-0.23379,0.0834-0.43419,0.25025-0.6012l6.859-6.864-6.857-6.864c-0.16685-0.16698-0.25027-0.35068-0.25025-0.5511-0.000018-0.23378,0.0834-0.43418,0.25025-0.6012,0.16682-0.20037,0.35033-0.30058,0.55055-0.3006,0.23355,0.000026,0.45043,0.08353,0.65065,0.2505l6.8569,6.8637,6.8068-6.8637c0.20017-0.16697,0.40037-0.25048,0.6006-0.2505,0.23353,0.000026,0.43373,0.10022,0.6006,0.3006,0.1668,0.16703,0.25022,0.36743,0.25025,0.6012-0.000034,0.20042-0.08345,0.38413-0.25025,0.5511m16.965,6.863c-0.167,7.081-2.603,12.976-7.307,17.685-4.705,4.71-10.594,7.148-17.668,7.315-7.074-0.167-12.98-2.605-17.718-7.315-4.7047-4.709-7.1405-10.604-7.3073-17.685,0.16683-7.081,2.6026-12.976,7.3073-17.685,4.7377-4.7093,10.644-7.1476,17.718-7.3146,7.074,0.16704,12.963,2.6053,17.668,7.3146,4.704,4.7094,7.14,10.604,7.307,17.685m-1.7017,0c-0.167-6.613-2.452-12.108-6.857-16.483-4.371-4.4087-9.843-6.6967-16.416-6.8637-6.607,0.167-12.112,2.455-16.516,6.8637-4.371,4.375-6.64,9.87-6.8068,16.483,0.1668,6.613,2.4358,12.124,6.8068,16.533,4.4045,4.375,9.9095,6.647,16.516,6.814,6.573-0.167,12.045-2.439,16.416-6.814,4.405-4.409,6.69-9.92,6.857-16.533"/>
</svg>
