<!-- Created with Inkscape (http://www.inkscape.org/) -->
<svg xmlns:rdf="http://www.w3.org/1999/02/22-rdf-syntax-ns#" xmlns="http://www.w3.org/2000/svg" version="1.1" xmlns:cc="http://creativecommons.org/ns#" xmlns:dc="http://purl.org/dc/elements/1.1/" viewBox="0 0 50 50">
 <metadata>
  <rdf:RDF>
   <cc:Work rdf:about="">
    <dc:format>image/svg+xml</dc:format>
    <dc:type rdf:resource="http://purl.org/dc/dcmitype/StillImage"/>
    <dc:title/>
   </cc:Work>
  </rdf:RDF>
 </metadata>
 <path fill="#f1f1f1" d="M25,50c7.081-0.15,12.976-2.6,17.685-7.3,4.71-4.7,7.148-10.6,7.315-17.7-0.167-7.1-2.605-13-7.315-17.7-4.709-4.7-10.604-7.15-17.685-7.3-7.081,0.15-12.976,2.6-17.685,7.3-4.7094,4.7-7.1476,10.6-7.3146,17.7,0.167,7.1,2.6052,13,7.3146,17.7s10.604,7.15,17.685,7.3m0-48.35c6.5798,0.15,12.057,2.45,16.433,6.85,4.4088,4.4,6.6967,9.9,6.8637,16.5-0.16705,6.6-2.455,12.05-6.8637,16.5-4.376,4.35-9.853,6.65-16.433,6.8-6.613-0.15-12.124-2.45-16.533-6.8-4.3754-4.45-6.6466-9.9-6.8136-16.5,0.167-6.6,2.4382-12.1,6.8136-16.5,4.4091-4.4,9.9201-6.7,16.533-6.85m-3.7575,30.65,7.6653-7.7-7.6653-7.65c-0.30062-0.4-0.30062-0.8,0-1.2,0.40078-0.4,0.80158-0.4,1.2024,0l8.267,8.25c0.16697,0.2,0.25047,0.4,0.2505,0.65-0.00003,0.2-0.08353,0.4-0.2505,0.55l-8.2665,8.3c-0.16702,0.2-0.36742,0.25-0.6012,0.25-0.23382,0-0.43422-0.05-0.6012-0.25-0.33402-0.4-0.33402-0.8,0-1.2"/>
</svg>
