<!-- Created with Inkscape (http://www.inkscape.org/) -->
<svg xmlns:rdf="http://www.w3.org/1999/02/22-rdf-syntax-ns#" xmlns="http://www.w3.org/2000/svg" version="1.1" xmlns:cc="http://creativecommons.org/ns#" xmlns:dc="http://purl.org/dc/elements/1.1/" viewBox="0 0 50 50">
 <metadata>
  <rdf:RDF>
   <cc:Work rdf:about="">
    <dc:format>image/svg+xml</dc:format>
    <dc:type rdf:resource="http://purl.org/dc/dcmitype/StillImage"/>
    <dc:title/>
   </cc:Work>
  </rdf:RDF>
 </metadata>
 <path fill="#f1f1f1" d="M25,0c-7.067,0.16672-12.967,2.6168-17.7,7.35-4.7,4.7-7.1333,10.583-7.3,17.65,0.16667,7.067,2.6,12.95,7.3,17.65,4.733,4.733,10.633,7.183,17.7,7.35,7.067-0.167,12.95-2.617,17.65-7.35,4.733-4.7,7.183-10.583,7.35-17.65-0.167-7.067-2.617-12.95-7.35-17.65-4.7-4.7332-10.583-7.1833-17.65-7.35m0,48.3c-6.6-0.167-12.1-2.433-16.5-6.8-4.3667-4.4-6.6333-9.9-6.8-16.5,0.1667-6.6,2.4333-12.083,6.8-16.45,4.4-4.3999,9.9-6.6832,16.5-6.85,6.6,0.1668,12.083,2.4501,16.45,6.85,4.4,4.367,6.683,9.85,6.85,16.45-0.167,6.6-2.45,12.1-6.85,16.5-4.367,4.367-9.85,6.633-16.45,6.8m6.45-31,0,15.4c-0.03336,0.53333-0.3167,0.8-0.85,0.8-0.53336,0-0.8167-0.26667-0.85-0.8v-15.4c-0.00003-0.23328,0.0833-0.43328,0.25-0.6,0.16664-0.16662,0.36664-0.24998,0.6-0.24998,0.2333,0,0.4333,0.08296,0.6,0.24998,0.16664,0.16672,0.24997,0.36672,0.25,0.6m-11.15,0,0,15.4c-0.000021,0.26667-0.08335,0.48336-0.25,0.64997-0.16669,0.13333-0.36669,0.2-0.6,0.2-0.53335-0.03298-0.81668-0.31664-0.85-0.84997v-15.4c-0.000018-0.23328,0.06665-0.43328,0.2-0.6,0.16665-0.16662,0.36665-0.24998,0.6-0.24998,0.26665,0,0.48331,0.08296,0.65,0.24998,0.16665,0.16672,0.24998,0.36672,0.25,0.6"/>
</svg>
