<!-- Created with Inkscape (http://www.inkscape.org/) -->
<svg xmlns:rdf="http://www.w3.org/1999/02/22-rdf-syntax-ns#" xmlns="http://www.w3.org/2000/svg" version="1.1" xmlns:cc="http://creativecommons.org/ns#" xmlns:dc="http://purl.org/dc/elements/1.1/" viewBox="0 0 50 50">
 <metadata>
  <rdf:RDF>
   <cc:Work rdf:about="">
    <dc:format>image/svg+xml</dc:format>
    <dc:type rdf:resource="http://purl.org/dc/dcmitype/StillImage"/>
    <dc:title/>
   </cc:Work>
  </rdf:RDF>
 </metadata>
 <path fill="#f1f1f1" d="M24.975-0.000072251c-7.074,0.16671-12.963,2.6168-17.668,7.35-4.7047,4.7001-7.1405,10.583-7.3073,17.65,0.16683,7.067,2.6026,12.95,7.3073,17.65,4.7047,4.733,10.594,7.183,17.668,7.35,7.074-0.167,12.963-2.617,17.668-7.35,4.738-4.7,7.19-10.583,7.357-17.65-0.167-7.067-2.619-12.95-7.357-17.65-4.705-4.7332-10.594-7.1833-17.668-7.35m0,48.3c-6.573-0.167-12.062-2.45-16.466-6.85-4.4044-4.4-6.69-9.883-6.8568-16.45,0.1668-6.6,2.4524-12.083,6.8568-16.45,4.4045-4.3998,9.8935-6.6832,16.466-6.8499,6.607,0.1667,12.095,2.4501,16.466,6.8499,4.405,4.3671,6.69,9.8501,6.857,16.45-0.167,6.6-2.452,12.1-6.857,16.5-4.371,4.367-9.859,6.633-16.466,6.8m-1.902-32.2c-0.16686-0.16662-0.36706-0.24997-0.6006-0.24997h-0.05006c-0.000023,0-0.03339,0.01699-0.1001,0.04997h-0.2002c-0.30032,0.16672-0.46715,0.43338-0.5005,0.8v16.55c-0.000021,0.13333,0.01666,0.24998,0.05005,0.35002,0.10008,0.2,0.26691,0.34992,0.5005,0.44997,0.06671,0,0.11676,0.01699,0.15015,0.04998h0.15015c0.23354,0,0.43374-0.08296,0.6006-0.24997l8.2583-8.25c0.1668-0.2,0.25022-0.4,0.25025-0.6-0.000033-0.23338-0.08345-0.43338-0.25025-0.6l-8.2583-8.3m0.25025,15.1,0-12.45,6.2563,6.2501-6.2563,6.2"/>
</svg>
