<!-- Created with Inkscape (http://www.inkscape.org/) -->
<svg xmlns:rdf="http://www.w3.org/1999/02/22-rdf-syntax-ns#" xmlns="http://www.w3.org/2000/svg" version="1.1" xmlns:cc="http://creativecommons.org/ns#" xmlns:dc="http://purl.org/dc/elements/1.1/" viewBox="0 0 50 50">
 <metadata>
  <rdf:RDF>
   <cc:Work rdf:about="">
    <dc:format>image/svg+xml</dc:format>
    <dc:type rdf:resource="http://purl.org/dc/dcmitype/StillImage"/>
    <dc:title/>
   </cc:Work>
  </rdf:RDF>
 </metadata>
 <path fill="#f1f1f1" d="M25,0c-7.081,0.16704-12.976,2.6053-17.685,7.3146-4.7094,4.7094-7.1476,10.604-7.3146,17.685,0.167,7.081,2.6052,12.976,7.3146,17.685,4.7094,4.71,10.604,7.148,17.685,7.315,7.081-0.167,12.976-2.605,17.685-7.315,4.71-4.709,7.148-10.604,7.315-17.685-0.167-7.081-2.605-12.976-7.315-17.685-4.709-4.7093-10.604-7.1476-17.685-7.3146m0,48.297c-6.613-0.167-12.124-2.439-16.533-6.814-4.3754-4.409-6.6466-9.903-6.8136-16.483,0.167-6.613,2.4382-12.108,6.8136-16.483,4.4091-4.4087,9.9201-6.6967,16.533-6.8637,6.58,0.167,12.057,2.455,16.433,6.8637,4.409,4.375,6.697,9.87,6.864,16.483-0.167,6.58-2.455,12.074-6.864,16.483-4.376,4.375-9.853,6.647-16.433,6.814m3.7074-30.661-7.6653,7.7154,7.6653,7.6653c0.16697,0.20041,0.25047,0.41751,0.2505,0.6513-0.000029,0.20041-0.08353,0.38411-0.2505,0.5511-0.16703,0.16701-0.36743,0.25051-0.6012,0.2505-0.20043,0.000008-0.40083-0.08349-0.6012-0.2505l-8.2665-8.2665c-0.30062-0.40078-0.30062-0.80159,0-1.2024l8.2665-8.3166c0.20037-0.16697,0.41747-0.25048,0.6513-0.2505,0.23377,0.000026,0.41747,0.10022,0.5511,0.3006,0.16697,0.16703,0.25047,0.36743,0.2505,0.6012-0.000029,0.20043-0.08353,0.38413-0.2505,0.5511"/>
</svg>
